<svg width="159" height="26" xmlns="http://www.w3.org/2000/svg"><g fill="none" fill-rule="evenodd"><path fill="#31CBE2" d="M12.606 0l-.215.215-1.934 1.934-.215.215.215.214 1.934 1.934.215.215.215-.215 1.934-1.934.215-.214-.215-.215L12.82.215z"/><path fill="#FFF" d="M7.747 4.943L.212 12.61 0 12.826l.212.216 12.523 12.742.212.216.212-.216 12.629-12.85.212-.216-.212-.216L18.57 5.16l-.212-.216-.212.216-7.004 7.127-.212.216.212.216 1.91 1.944.212.216.212-.216 4.882-4.967 2.972 3.023-8.384 8.53-8.278-8.422 5.413-5.507.212-.216-.212-.216-1.91-1.944-.213-.216z"/><path d="M38.099 19.5V7.228h2.981V19.5h-2.981zm10.888 0v-4.715c0-.242-.02-.473-.06-.693a1.911 1.911 0 0 0-.2-.58 1.034 1.034 0 0 0-.39-.4 1.235 1.235 0 0 0-.632-.147c-.255 0-.477.05-.668.148a1.35 1.35 0 0 0-.476.407 1.85 1.85 0 0 0-.286.598c-.064.225-.096.46-.096.702v4.68h-2.86v-8.632h2.756v1.196h.035a2.85 2.85 0 0 1 .407-.546c.168-.18.364-.332.59-.46.225-.126.47-.23.736-.311.266-.081.55-.122.85-.122.577 0 1.068.104 1.473.312.404.208.73.477.98.806.248.33.427.708.537 1.136.11.427.164.855.164 1.282V19.5h-2.86zm9.953-6.084a3.166 3.166 0 0 0-.815-.555 2.25 2.25 0 0 0-.988-.225c-.266 0-.511.052-.736.156a.547.547 0 0 0-.339.537c0 .243.125.416.373.52.249.104.65.22 1.205.347.323.07.65.168.98.295.329.127.626.294.892.502.266.208.48.463.641.763.162.3.243.659.243 1.075 0 .543-.11 1.002-.33 1.378a2.7 2.7 0 0 1-.858.91 3.7 3.7 0 0 1-1.187.502c-.439.104-.878.156-1.317.156a6.51 6.51 0 0 1-2.072-.338c-.676-.225-1.239-.557-1.69-.996l1.595-1.682c.254.278.566.509.936.694a2.6 2.6 0 0 0 1.179.277c.23 0 .46-.055.684-.165.226-.11.339-.303.339-.58 0-.266-.14-.463-.416-.59-.278-.127-.711-.26-1.3-.398-.3-.07-.601-.162-.902-.278-.3-.115-.569-.271-.806-.468a2.328 2.328 0 0 1-.58-.728c-.15-.289-.226-.635-.226-1.04 0-.52.11-.962.33-1.326a2.79 2.79 0 0 1 .849-.892c.347-.231.73-.402 1.152-.512.422-.11.841-.164 1.257-.164.647 0 1.28.1 1.898.303a4.1 4.1 0 0 1 1.569.91l-1.56 1.612zm12.57 1.733c0 .601-.093 1.179-.278 1.734a4.457 4.457 0 0 1-.806 1.464c-.352.422-.782.76-1.29 1.014-.51.255-1.087.382-1.734.382a3.624 3.624 0 0 1-1.508-.321c-.474-.214-.844-.506-1.11-.875h-.034v5.113h-2.843V10.868h2.704v1.057h.052c.266-.346.633-.65 1.1-.91.469-.26 1.02-.39 1.656-.39.624 0 1.19.122 1.699.364.508.243.939.572 1.291.988.353.416.624.899.815 1.448.19.549.286 1.123.286 1.724zm-2.756 0c0-.277-.044-.549-.13-.814a2.116 2.116 0 0 0-.382-.702 1.929 1.929 0 0 0-.632-.494 1.952 1.952 0 0 0-.884-.191c-.324 0-.613.064-.867.19-.254.128-.47.295-.65.503-.179.208-.318.445-.416.711a2.333 2.333 0 0 0 0 1.63c.098.265.237.502.416.71.18.208.396.376.65.503s.543.19.867.19c.335 0 .63-.063.884-.19s.465-.295.632-.503a2.2 2.2 0 0 0 .382-.72c.086-.27.13-.545.13-.823zm7.491-7.037c0 .22-.043.425-.13.615-.087.191-.202.356-.347.494a1.688 1.688 0 0 1-1.153.45c-.462.001-.849-.152-1.16-.458a1.488 1.488 0 0 1-.469-1.101c0-.208.04-.407.122-.598.08-.19.196-.355.346-.494.15-.139.324-.251.52-.338a1.688 1.688 0 0 1 1.794.32c.145.14.26.304.347.495.087.19.13.395.13.615zM73.195 19.5v-8.632h2.842V19.5h-2.843zm10.559-6.31a2.214 2.214 0 0 0-.373-.069 3.748 3.748 0 0 0-.355-.017c-.382 0-.702.07-.962.208-.26.139-.468.306-.624.503-.156.196-.27.41-.338.641-.07.231-.104.433-.104.607V19.5h-2.843v-8.632h2.739v1.248h.034c.22-.44.532-.797.936-1.075a2.422 2.422 0 0 1 1.404-.416c.116 0 .228.006.338.018.11.011.2.029.269.052l-.121 2.496zm5.948 2.549h-.364c-.312 0-.627.014-.944.043-.318.029-.601.084-.85.165-.248.08-.453.199-.615.355a.816.816 0 0 0-.243.615c0 .162.038.3.113.416.075.116.17.208.286.278.115.069.248.118.399.147.15.029.294.043.433.043.578 0 1.02-.159 1.326-.476.306-.318.46-.749.46-1.292v-.294zm-5.217-3.692c.508-.486 1.1-.85 1.776-1.092a6.088 6.088 0 0 1 2.072-.364c.728 0 1.343.09 1.846.268.503.18.91.457 1.222.832.312.376.54.85.684 1.422.145.572.217 1.25.217 2.036V19.5h-2.6v-.919h-.052c-.22.359-.552.636-.997.832a3.543 3.543 0 0 1-1.447.295c-.347 0-.705-.046-1.075-.139a3.148 3.148 0 0 1-1.013-.45 2.44 2.44 0 0 1-.754-.832c-.197-.347-.295-.775-.295-1.283 0-.624.17-1.127.511-1.508.341-.381.78-.676 1.317-.884a6.98 6.98 0 0 1 1.794-.416c.66-.07 1.3-.104 1.924-.104v-.139c0-.427-.15-.742-.45-.944-.3-.203-.67-.304-1.11-.304-.404 0-.794.087-1.17.26a3.735 3.735 0 0 0-.962.624l-1.438-1.542zM97.193 13v3.293c0 .405.078.708.234.91.156.203.437.304.841.304.139 0 .286-.012.442-.035.156-.023.286-.058.39-.104l.035 2.08c-.197.07-.445.13-.746.182-.3.052-.6.078-.9.078-.579 0-1.064-.072-1.457-.217a2.257 2.257 0 0 1-.945-.624 2.446 2.446 0 0 1-.51-.97 4.706 4.706 0 0 1-.157-1.257V13h-1.387v-2.132h1.37v-2.27h2.79v2.27h2.028V13h-2.028zm6.313-4.888c0 .22-.043.425-.13.615-.087.191-.202.356-.347.494a1.688 1.688 0 0 1-1.153.45c-.462.001-.849-.152-1.16-.458a1.488 1.488 0 0 1-.469-1.101c0-.208.04-.407.122-.598.08-.19.196-.355.346-.494.15-.139.324-.251.52-.338a1.688 1.688 0 0 1 1.794.32c.145.14.26.304.347.495.087.19.13.395.13.615zm-3.05 11.388v-8.632h2.842V19.5h-2.843zm14.112-4.35c0 .704-.127 1.343-.381 1.915a4.295 4.295 0 0 1-1.04 1.456 4.76 4.76 0 0 1-1.526.927c-.578.22-1.196.33-1.854.33-.648 0-1.263-.11-1.846-.33a4.639 4.639 0 0 1-1.526-.927 4.353 4.353 0 0 1-1.031-1.456c-.254-.572-.381-1.21-.381-1.916 0-.705.127-1.34.38-1.906a4.281 4.281 0 0 1 1.032-1.439 4.484 4.484 0 0 1 1.526-.901 5.457 5.457 0 0 1 1.846-.312c.658 0 1.276.104 1.854.312a4.597 4.597 0 0 1 1.526.901c.439.393.785.872 1.04 1.439.254.566.38 1.201.38 1.906zm-2.739 0c0-.278-.046-.55-.138-.815a2.154 2.154 0 0 0-.4-.702 1.952 1.952 0 0 0-1.525-.685c-.335 0-.63.064-.883.19a1.929 1.929 0 0 0-.633.495 2.116 2.116 0 0 0-.381.702 2.612 2.612 0 0 0 0 1.629c.086.266.216.506.39.72.173.213.387.384.64.51.255.128.55.191.885.191.335 0 .63-.063.884-.19a1.92 1.92 0 0 0 .641-.512 2.23 2.23 0 0 0 .39-.719c.087-.266.13-.537.13-.815zm10.074 4.35v-4.715c0-.242-.02-.473-.06-.693a1.911 1.911 0 0 0-.2-.58 1.034 1.034 0 0 0-.39-.4 1.235 1.235 0 0 0-.632-.147c-.255 0-.477.05-.668.148a1.35 1.35 0 0 0-.477.407 1.85 1.85 0 0 0-.285.598c-.064.225-.096.46-.096.702v4.68h-2.86v-8.632h2.756v1.196h.035a2.85 2.85 0 0 1 .407-.546c.168-.18.364-.332.59-.46.225-.126.47-.23.736-.311.266-.081.55-.122.85-.122.577 0 1.068.104 1.473.312.404.208.73.477.98.806.248.33.427.708.537 1.136.11.427.164.855.164 1.282V19.5h-2.86zm14.702-10.07a4.47 4.47 0 0 0-1.525-1.05c-.59-.248-1.266-.372-2.028-.372-.786 0-1.494.144-2.124.433a4.813 4.813 0 0 0-1.603 1.17 5.231 5.231 0 0 0-1.014 1.708 5.903 5.903 0 0 0-.355 2.045c0 .716.118 1.398.355 2.045a5.132 5.132 0 0 0 1.014 1.699c.44.485.974.872 1.603 1.161.63.29 1.338.434 2.124.434a7.57 7.57 0 0 0 1.906-.226c.578-.15 1.046-.34 1.404-.572V14.18h-2.86v-1.092h4.108v5.529a7.956 7.956 0 0 1-2.166.901 9.759 9.759 0 0 1-2.41.295c-.924 0-1.78-.162-2.565-.485a6.067 6.067 0 0 1-2.028-1.344 6.12 6.12 0 0 1-1.326-2.036c-.318-.786-.477-1.647-.477-2.583 0-.936.162-1.797.486-2.583a6.163 6.163 0 0 1 1.343-2.036 6.185 6.185 0 0 1 2.028-1.344 6.562 6.562 0 0 1 2.54-.485c.982 0 1.837.144 2.565.433a5.458 5.458 0 0 1 1.872 1.214l-.867.866zm4.01 3.743a26.51 26.51 0 0 0-.07-1.785h1.127a15.694 15.694 0 0 1 .07 1.387h.034a2.81 2.81 0 0 1 1.04-1.153 2.84 2.84 0 0 1 1.56-.442c.15 0 .286.006.407.017.121.012.246.035.373.07L145 12.376a3.428 3.428 0 0 0-.832-.104c-.312 0-.613.058-.902.173-.289.116-.54.298-.754.546a2.877 2.877 0 0 0-.52.954c-.133.387-.199.852-.199 1.395v4.16h-1.179v-6.327zm7.32 6.327h-1.18v-8.112h1.18V19.5zm.242-11.232a.769.769 0 0 1-.26.598.837.837 0 0 1-.572.234.837.837 0 0 1-.572-.234.769.769 0 0 1-.26-.598c0-.243.087-.442.26-.598a.837.837 0 0 1 .572-.234c.208 0 .399.078.572.234.173.156.26.355.26.598zm9.452 9.863c-.347.52-.797.913-1.352 1.178a3.928 3.928 0 0 1-1.716.399 4.35 4.35 0 0 1-1.725-.33 3.93 3.93 0 0 1-1.317-.9 4.07 4.07 0 0 1-.85-1.353 4.598 4.598 0 0 1-.303-1.681c0-.6.101-1.161.304-1.681.202-.52.485-.971.849-1.352a3.93 3.93 0 0 1 1.317-.902 4.35 4.35 0 0 1 1.725-.329c.59 0 1.161.136 1.716.407a3.35 3.35 0 0 1 1.352 1.205h.035V6.396h1.178V19.5h-1.178v-1.37h-.035zm-6.015-2.687c0 .45.07.875.208 1.274.139.399.338.745.598 1.04.26.295.58.526.962.693.382.168.815.252 1.3.252a3.068 3.068 0 0 0 2.236-.936c.278-.29.494-.633.65-1.032.156-.398.234-.829.234-1.291 0-.462-.078-.893-.234-1.291a3.202 3.202 0 0 0-.65-1.04 2.995 2.995 0 0 0-.988-.694 3.068 3.068 0 0 0-1.248-.251c-.485 0-.918.087-1.3.26a2.82 2.82 0 0 0-.962.702c-.26.295-.46.641-.598 1.04a3.85 3.85 0 0 0-.208 1.274z" fill="#FFF" fill-rule="nonzero"/></g></svg>