<svg width="91" height="20" viewBox="0 0 91 20" fill="none" xmlns="http://www.w3.org/2000/svg">
<g clip-path="url(#clip0)">
<path d="M1.32986 4.03469L7.6795 0.357397C8.50364 -0.111646 9.51509 -0.111646 10.3392 0.357397L16.6701 4.03469C17.4943 4.50374 18 5.38554 18 6.34239V13.6782C18 14.6351 17.4943 15.4981 16.6701 15.9859L10.3205 19.6632C9.49636 20.1323 8.48491 20.1323 7.66077 19.6632L1.32986 15.9859C0.505723 15.4981 0 14.6163 0 13.6782V6.34239C0 5.38554 0.505723 4.50374 1.32986 4.03469Z" fill="white"/>
<path fill-rule="evenodd" clip-rule="evenodd" d="M7.5135 5.72333C8.16967 6.4005 7.75211 7.67519 7.75211 7.67519L9.3375 9.30059L12.0433 6.53785C12.0433 6.51793 12.0632 6.51793 12.0632 6.51793L12.0831 6.49802C12.0831 6.49802 11.9638 6.15943 12.6398 5.48225C12.6995 5.4225 12.8188 5.48225 12.9381 5.60175L13.8789 6.54036C13.9982 6.65986 14.0579 6.77936 13.9982 6.83911C13.3619 7.49637 12.9841 7.39679 12.9841 7.39679C12.9841 7.41671 12.9643 7.41671 12.9643 7.41671L12.9444 7.43662L10.2316 10.1563L13.9168 13.8296C14.1355 14.0487 14.1753 14.5267 13.7975 14.8852C13.4197 15.2636 12.8828 15.2437 12.684 15.0445L9.01826 11.3727L8.59608 11.7959L8.58186 11.7818C8.70382 11.9619 8.68561 12.2142 8.52723 12.3728L5.74349 15.1612C5.56454 15.3405 5.26628 15.3405 5.08732 15.1612L4.34716 14.4303C4.1682 14.251 4.1682 13.9523 4.34716 13.773L7.1309 10.9847C7.29682 10.8185 7.5653 10.8064 7.74616 10.9483L7.73479 10.937L8.15381 10.5092L6.45966 8.83038C6.45966 8.83038 5.32628 9.32831 4.61046 8.61129C3.89464 7.87436 4.07359 6.91835 4.07359 6.91835L4.33209 6.65943L5.14732 7.47602L6.00233 7.69511L6.53919 7.15735L6.32047 6.4005L5.46547 5.54407L5.82337 5.18557C5.82337 5.18557 6.83745 5.04615 7.5135 5.72333ZM13.2606 14.8254C13.022 14.8254 12.8231 14.6262 12.8231 14.3872C12.8231 14.1482 13.022 13.9491 13.2606 13.9491C13.4992 13.9491 13.698 14.1482 13.698 14.3872C13.698 14.6262 13.4992 14.8254 13.2606 14.8254Z" fill="#303030"/>
</g>
<path d="M36.0085 10.5498C36.0085 11.8471 35.6632 12.8225 34.9725 13.4758C34.2819 14.1291 33.2505 14.4558 31.8785 14.4558C30.5159 14.4558 29.4845 14.1291 28.7845 13.4758C28.0939 12.8225 27.7485 11.8471 27.7485 10.5498V5.0758H30.1705V10.5918C30.1705 11.2545 30.3105 11.7491 30.5905 12.0758C30.8705 12.4025 31.2999 12.5658 31.8785 12.5658C33.0359 12.5658 33.6145 11.9078 33.6145 10.5918V5.0758H36.0085V10.5498ZM39.885 14.3158H37.477V5.0758H39.885V14.3158ZM53.3879 9.3178V14.3158H51.7079L51.6379 13.2238C51.1059 14.0451 50.2239 14.4558 48.9919 14.4558C48.1519 14.4558 47.4052 14.2738 46.7519 13.9098C46.1079 13.5365 45.6039 12.9951 45.2399 12.2858C44.8759 11.5671 44.6939 10.7085 44.6939 9.7098C44.6939 8.72046 44.8806 7.87113 45.2539 7.1618C45.6272 6.44313 46.1592 5.89246 46.8499 5.5098C47.5406 5.12713 48.3572 4.9358 49.2999 4.9358C50.3546 4.9358 51.2039 5.12246 51.8479 5.4958C52.4919 5.86913 53.0006 6.47113 53.3739 7.3018L51.1479 8.1838C51.0359 7.72646 50.8259 7.3858 50.5179 7.1618C50.2099 6.9378 49.8272 6.8258 49.3699 6.8258C48.6606 6.8258 48.1146 7.06846 47.7319 7.5538C47.3586 8.03913 47.1719 8.75313 47.1719 9.6958C47.1719 11.6371 47.9279 12.6078 49.4399 12.6078C50.0092 12.6078 50.4666 12.4771 50.8119 12.2158C51.1666 11.9545 51.3439 11.5765 51.3439 11.0818V10.9418H49.0479V9.3178H53.3879ZM61.3911 12.9578C61.5684 12.9578 61.7131 12.9391 61.8251 12.9018L61.6431 14.2318C61.3724 14.3811 61.0551 14.4558 60.6911 14.4558C59.6831 14.4558 59.0811 14.0965 58.8851 13.3778C58.4651 14.0965 57.6344 14.4558 56.3931 14.4558C55.6931 14.4558 55.1564 14.3065 54.7831 14.0078C54.4097 13.7091 54.2231 13.2751 54.2231 12.7058C54.2231 12.1085 54.4331 11.6278 54.8531 11.2638C55.2824 10.8905 55.9824 10.6058 56.9531 10.4098L58.5351 10.1018V9.8498C58.5351 9.53246 58.4464 9.28046 58.2691 9.0938C58.0917 8.90713 57.8491 8.8138 57.5411 8.8138C57.1864 8.8138 56.8971 8.8978 56.6731 9.0658C56.4491 9.2338 56.3044 9.50913 56.2391 9.8918L54.3071 9.3318C54.4284 8.65046 54.7644 8.12313 55.3151 7.7498C55.8657 7.36713 56.6077 7.1758 57.5411 7.1758C58.6331 7.1758 59.4637 7.3998 60.0331 7.8478C60.6024 8.2958 60.8871 8.9678 60.8871 9.8638V12.4118C60.8871 12.7758 61.0551 12.9578 61.3911 12.9578ZM57.2611 12.9158C57.5877 12.9158 57.8817 12.8271 58.1431 12.6498C58.4044 12.4631 58.5351 12.2205 58.5351 11.9218V11.3198L57.4011 11.5858C57.1024 11.6605 56.8877 11.7538 56.7571 11.8658C56.6357 11.9685 56.5751 12.1178 56.5751 12.3138C56.5751 12.5098 56.6357 12.6591 56.7571 12.7618C56.8784 12.8645 57.0464 12.9158 57.2611 12.9158ZM66.6698 7.1758C66.9872 7.1758 67.2392 7.22713 67.4258 7.3298L67.1738 9.3458C67.0805 9.2898 66.9545 9.24313 66.7958 9.2058C66.6372 9.15913 66.4692 9.1358 66.2918 9.1358C65.8438 9.1358 65.4705 9.28046 65.1718 9.5698C64.8732 9.8498 64.7238 10.2558 64.7238 10.7878V14.3158H62.3438V7.3158H64.4438L64.5418 8.8278C64.7098 8.2958 64.9712 7.8898 65.3258 7.6098C65.6898 7.32046 66.1378 7.1758 66.6698 7.1758ZM74.6194 12.9578C74.7968 12.9578 74.9414 12.9391 75.0534 12.9018L74.8714 14.2318C74.6008 14.3811 74.2834 14.4558 73.9194 14.4558C72.9114 14.4558 72.3094 14.0965 72.1134 13.3778C71.6934 14.0965 70.8628 14.4558 69.6214 14.4558C68.9214 14.4558 68.3848 14.3065 68.0114 14.0078C67.6381 13.7091 67.4514 13.2751 67.4514 12.7058C67.4514 12.1085 67.6614 11.6278 68.0814 11.2638C68.5108 10.8905 69.2108 10.6058 70.1814 10.4098L71.7634 10.1018V9.8498C71.7634 9.53246 71.6748 9.28046 71.4974 9.0938C71.3201 8.90713 71.0774 8.8138 70.7694 8.8138C70.4148 8.8138 70.1254 8.8978 69.9014 9.0658C69.6774 9.2338 69.5328 9.50913 69.4674 9.8918L67.5354 9.3318C67.6568 8.65046 67.9928 8.12313 68.5434 7.7498C69.0941 7.36713 69.8361 7.1758 70.7694 7.1758C71.8614 7.1758 72.6921 7.3998 73.2614 7.8478C73.8308 8.2958 74.1154 8.9678 74.1154 9.8638V12.4118C74.1154 12.7758 74.2834 12.9578 74.6194 12.9578ZM70.4894 12.9158C70.8161 12.9158 71.1101 12.8271 71.3714 12.6498C71.6328 12.4631 71.7634 12.2205 71.7634 11.9218V11.3198L70.6294 11.5858C70.3308 11.6605 70.1161 11.7538 69.9854 11.8658C69.8641 11.9685 69.8034 12.1178 69.8034 12.3138C69.8034 12.5098 69.8641 12.6591 69.9854 12.7618C70.1068 12.8645 70.2748 12.9158 70.4894 12.9158ZM80.0786 12.7618C80.8906 12.7618 81.5159 12.9391 81.9546 13.2938C82.4026 13.6485 82.6266 14.1711 82.6266 14.8618C82.6266 15.6551 82.2719 16.2618 81.5626 16.6818C80.8626 17.1111 79.9059 17.3258 78.6926 17.3258C77.4699 17.3258 76.5646 17.1811 75.9766 16.8918C75.3979 16.6025 75.1086 16.1965 75.1086 15.6738C75.1086 15.3658 75.2159 15.0951 75.4306 14.8618C75.6452 14.6285 75.9719 14.4605 76.4106 14.3578C75.6919 14.0498 75.3326 13.5645 75.3326 12.9018C75.3326 12.5751 75.4352 12.2858 75.6406 12.0338C75.8459 11.7818 76.1259 11.5951 76.4806 11.4738C75.7152 11.0631 75.3326 10.4238 75.3326 9.5558C75.3326 8.7998 75.6312 8.21646 76.2286 7.8058C76.8259 7.3858 77.6659 7.1758 78.7486 7.1758C79.2526 7.1758 79.7192 7.22713 80.1486 7.3298C80.2419 6.7698 80.4519 6.31246 80.7786 5.9578C81.1052 5.60313 81.5579 5.4258 82.1366 5.4258L82.3606 5.4398L82.6266 7.0218C82.4399 7.00313 82.3092 6.9938 82.2346 6.9938C81.9172 6.9938 81.6512 7.0498 81.4366 7.1618C81.2312 7.2738 81.0819 7.4278 80.9886 7.6238C81.7726 8.03446 82.1646 8.67846 82.1646 9.5558C82.1646 10.3118 81.8659 10.8951 81.2686 11.3058C80.6712 11.7165 79.8312 11.9218 78.7486 11.9218C78.2446 11.9218 77.7966 11.8798 77.4046 11.7958C77.1152 11.8705 76.9706 12.0338 76.9706 12.2858C76.9706 12.6031 77.2132 12.7618 77.6986 12.7618H80.0786ZM78.7486 8.5338C78.4406 8.5338 78.1886 8.62713 77.9926 8.8138C77.8059 9.00046 77.7126 9.2478 77.7126 9.5558C77.7126 9.8638 77.8059 10.1111 77.9926 10.2978C78.1886 10.4751 78.4406 10.5638 78.7486 10.5638C79.0566 10.5638 79.3039 10.4751 79.4906 10.2978C79.6866 10.1111 79.7846 9.8638 79.7846 9.5558C79.7846 9.2478 79.6866 9.00046 79.4906 8.8138C79.3039 8.62713 79.0566 8.5338 78.7486 8.5338ZM78.8606 15.7858C79.4766 15.7858 79.9432 15.7205 80.2606 15.5898C80.5872 15.4685 80.7506 15.3051 80.7506 15.0998C80.7506 14.9505 80.6852 14.8385 80.5546 14.7638C80.4239 14.6891 80.2046 14.6518 79.8966 14.6518H77.9786C77.5959 14.6518 77.3206 14.6891 77.1526 14.7638C76.9939 14.8478 76.9146 14.9738 76.9146 15.1418C76.9146 15.5711 77.5632 15.7858 78.8606 15.7858ZM89.9682 10.7178C89.9682 11.0351 89.9449 11.2965 89.8982 11.5018H85.1242C85.1989 11.9405 85.3576 12.2625 85.6002 12.4678C85.8522 12.6731 86.1836 12.7758 86.5942 12.7758C86.9396 12.7758 87.2196 12.7105 87.4342 12.5798C87.6582 12.4491 87.8076 12.2578 87.8822 12.0058L89.8142 12.6218C89.6182 13.2191 89.2356 13.6765 88.6662 13.9938C88.1062 14.3018 87.4156 14.4558 86.5942 14.4558C85.3716 14.4558 84.4336 14.1385 83.7802 13.5038C83.1362 12.8691 82.8142 11.9731 82.8142 10.8158C82.8142 9.65846 83.1316 8.76246 83.7662 8.1278C84.4009 7.49313 85.3016 7.1758 86.4682 7.1758C87.5976 7.1758 88.4609 7.48846 89.0582 8.1138C89.6649 8.7298 89.9682 9.5978 89.9682 10.7178ZM86.4542 8.8418C85.6982 8.8418 85.2502 9.29913 85.1102 10.2138H87.7422C87.6302 9.29913 87.2009 8.8418 86.4542 8.8418Z" fill="white"/>
<defs>
<clipPath id="clip0">
<rect width="18" height="20" fill="white"/>
</clipPath>
</defs>
</svg>
